<svg width="184pt" height="194pt" viewBox="0.00 0.00 184.00 194.00" xmlns="http://www.w3.org/2000/svg"><g class="graph" transform="translate(4 190)"><title>G</title><path fill="#fff" stroke="#fff" d="M-4 5v-195h185v195h-185z"/><g class="node"><title>modA</title><ellipse stroke="#000" cx="89" cy="-167" rx="39.097" ry="18.385" fill="none"/><text text-anchor="middle" x="89" y="-163.4" font-family="Times Roman,serif" font-size="14">modA</text></g><g class="node"><title>modB</title><ellipse stroke="#000" cx="41" cy="-93" rx="39.097" ry="18.385" fill="none"/><text text-anchor="middle" x="41" y="-89.4" font-family="Times Roman,serif" font-size="14">modB</text></g><g class="edge"><title>modA-&gt;modB</title><path stroke="#000" d="M77.38-149.087c-5.778 8.908-12.874 19.848-19.261 29.694" fill="none"/><path stroke="#000" d="M60.891-117.233l-8.378 6.485 2.505-10.295 5.873 3.81z"/></g><g class="node"><title>modC</title><ellipse stroke="#000" cx="137" cy="-93" rx="39.097" ry="18.385" fill="none"/><text text-anchor="middle" x="137" y="-89.4" font-family="Times Roman,serif" font-size="14">modC</text></g><g class="edge"><title>modA-&gt;modC</title><path stroke="#000" d="M100.619-149.087c5.778 8.908 12.875 19.848 19.261 29.694" fill="none"/><path stroke="#000" d="M122.982-121.043l2.506 10.295-8.379-6.485 5.873-3.81z"/></g><g class="node"><title>modD</title><ellipse stroke="#000" cx="40" cy="-19" rx="39.807" ry="18.385" fill="none"/><text text-anchor="middle" x="40" y="-15.4" font-family="Times Roman,serif" font-size="14">modD</text></g><g class="edge"><title>modB-&gt;modD</title><path stroke="#000" d="M40.748-74.327l-.36 26.615" fill="none"/><path stroke="#000" d="M43.887-47.619l-3.635 9.952-3.364-10.046 6.999.095z"/></g><g class="node"><title>modE</title><ellipse stroke="#000" cx="137" cy="-19" rx="38.891" ry="18.385" fill="none"/><text text-anchor="middle" x="137" y="-15.4" font-family="Times Roman,serif" font-size="14">modE</text></g><g class="edge"><title>modB-&gt;modE</title><path stroke="#000" d="M61.831-76.943c13.679 10.545 31.749 24.473 46.743 36.031" fill="none"/><path stroke="#000" d="M110.757-43.648l5.783 8.877-10.057-3.333 4.274-5.544z"/></g><g class="edge"><title>modC-&gt;modE</title><path stroke="#000" d="M137-74.327v26.615" fill="none"/><path stroke="#000" d="M140.5-47.667l-3.5 10-3.5-10h7z"/></g></g></svg>