<svg width="255pt" height="268pt" viewBox="0.00 0.00 255.00 268.00" xmlns="http://www.w3.org/2000/svg"><g class="graph" transform="translate(4 264)"><title>DOM</title><path fill="#fff" stroke="#fff" d="M-4 5v-269h256v269h-256z"/><g class="node"><title>html</title><ellipse stroke="#000" cx="80" cy="-241" rx="33.941" ry="18.385" fill="none"/><text text-anchor="middle" x="80" y="-237.4" font-family="Times Roman,serif" font-size="14">html</text></g><g class="node"><title>head</title><ellipse stroke="#000" cx="36" cy="-167" rx="34.857" ry="18.385" fill="none"/><text text-anchor="middle" x="36" y="-163.4" font-family="Times Roman,serif" font-size="14">head</text></g><g class="edge"><title>html--head</title><path stroke="#000" d="M69.349-223.087c-6.918 11.635-15.897 26.737-22.796 38.339" fill="none"/></g><g class="node"><title>body</title><ellipse stroke="#000" cx="125" cy="-167" rx="34.857" ry="18.385" fill="none"/><text text-anchor="middle" x="125" y="-163.4" font-family="Times Roman,serif" font-size="14">body</text></g><g class="edge"><title>html--body</title><path stroke="#000" d="M90.893-223.087l23.314 38.339" fill="none"/></g><g class="node"><title>style</title><ellipse stroke="#000" cx="35" cy="-93" rx="34.857" ry="18.385" fill="none"/><text text-anchor="middle" x="35" y="-89.4" font-family="Times Roman,serif" font-size="14">style</text></g><g class="edge"><title>head--style</title><path stroke="#000" d="M35.748-148.327c-.152 11.218-.344 25.443-.495 36.66" fill="none"/></g><g class="node"><title>input</title><ellipse stroke="#000" cx="125" cy="-93" rx="36.977" ry="18.385" fill="none"/><text text-anchor="middle" x="125" y="-89.4" font-family="Times Roman,serif" font-size="14">input</text></g><g class="edge"><title>body--input</title><path stroke="#000" d="M125-148.327v36.66" fill="none"/></g><g class="node"><title>p</title><ellipse stroke="#000" cx="207" cy="-93" rx="27" ry="18.385" fill="none"/><text text-anchor="middle" x="207" y="-89.4" font-family="Times Roman,serif" font-size="14">p</text></g><g class="edge"><title>body--p</title><path stroke="#000" d="M142.793-150.943c14.225 12.837 34.008 30.69 47.842 43.175" fill="none"/></g><g class="node"><title>#text</title><ellipse stroke="#000" cx="207" cy="-19" rx="39.807" ry="18.385" fill="none"/><text text-anchor="middle" x="207" y="-15.4" font-family="Times Roman,serif" font-size="14">#text</text></g><g class="edge"><title>p--#text</title><path stroke="#000" d="M207-74.327v36.659" fill="none"/></g></g></svg>